<!DOCTYPE svg PUBLIC "-//W3C//DTD SVG 20010904//EN" "http://www.w3.org/TR/2001/REC-SVG-20010904/DTD/svg10.dtd">
<svg version="1.0" xmlns="http://www.w3.org/2000/svg" width="128px" height="128px" viewBox="0 0 1280 1280" preserveAspectRatio="xMidYMid meet">
<g id="layer101" fill="#0b431d" stroke="none">
 <path d="M525 1059 c-95 -9 -268 -52 -301 -74 -31 -20 -30 -51 2 -108 14 -26 34 -90 45 -144 49 -247 99 -335 224 -395 100 -47 231 -37 300 23 l34 30 15 -52 c9 -29 16 -61 16 -71 0 -32 20 -58 44 -58 33 0 136 78 136 103 0 11 -25 49 -57 84 -44 51 -53 67 -42 74 8 5 17 9 21 9 17 0 81 66 101 104 31 58 31 191 1 257 -38 82 -135 156 -173 132 -9 -6 -15 -21 -13 -34 2 -13 6 -42 8 -65 l6 -41 -27 -22 c-38 -29 -78 -27 -117 8 -25 22 -32 37 -32 65 0 46 20 66 73 73 50 7 67 30 45 61 -26 38 -163 56 -309 41z"/>
 </g>
<g id="layer102" fill="#198032" stroke="none">
 <path d="M440 1004 c-36 -7 -95 -23 -132 -35 l-66 -21 29 -61 c16 -34 38 -107 49 -162 26 -131 55 -212 95 -266 68 -94 214 -136 310 -89 25 12 58 37 73 56 15 19 31 34 35 34 15 0 58 -107 64 -159 3 -28 8 -51 10 -51 10 0 93 64 93 72 0 4 -13 8 -28 8 l-28 0 -37 70 c-20 38 -37 74 -37 79 0 6 21 20 48 31 65 29 100 66 117 124 19 63 19 90 -1 155 -14 47 -74 131 -94 131 -4 0 -7 -23 -7 -51 l1 -52 -38 -34 -38 -35 -60 4 c-79 6 -119 42 -125 115 -6 65 21 107 78 125 l43 12 -25 7 c-43 12 -262 8 -329 -7z m296 -435 c3 -6 22 -17 40 -25 43 -18 45 -39 4 -31 -39 8 -80 35 -80 53 0 17 26 19 36 3z"/>
 </g>
<g id="layer103" fill="#2eb92e" stroke="none">
 <path d="M440 1004 c-36 -7 -95 -23 -132 -35 l-66 -21 29 -61 c16 -34 38 -107 49 -162 38 -189 85 -284 164 -330 56 -33 93 -43 132 -38 l32 5 6 36 c3 21 8 49 12 63 l6 27 -84 -5 c-50 -2 -89 0 -98 6 l-15 11 15 10 c8 5 33 10 56 10 22 0 48 6 57 13 l18 12 -46 54 -46 54 -75 26 c-42 15 -75 31 -74 36 0 6 23 9 50 7 28 -1 50 1 50 5 0 10 -21 41 -73 111 -69 91 -24 80 65 -17 l55 -59 11 21 c6 12 18 39 27 60 17 36 35 49 35 25 0 -7 -7 -35 -15 -62 -24 -80 -20 -96 34 -150 l49 -48 7 33 c9 43 33 81 46 74 5 -4 8 -9 5 -13 -2 -4 -6 -31 -10 -60 l-6 -54 22 -19 c18 -15 32 -18 68 -13 96 12 148 41 170 94 13 31 10 36 -39 86 -15 15 -22 31 -18 44 l5 20 -31 -26 -31 -26 -59 4 c-78 6 -118 43 -124 115 -6 65 21 107 78 125 l43 12 -25 7 c-43 12 -262 8 -329 -7z"/>
 <path d="M936 309 c-24 -18 -36 -49 -19 -49 11 0 73 51 73 61 0 16 -26 10 -54 -12z"/>
 </g>

</svg>